<?xml version="1.0" encoding="UTF-8"?>
<!DOCTYPE svg PUBLIC "-//W3C//DTD SVG 1.1//EN" "http://www.w3.org/Graphics/SVG/1.1/DTD/svg11.dtd">
<!-- Creator: CorelDRAW X7 -->
<svg xmlns="http://www.w3.org/2000/svg" xml:space="preserve" width="0.416669in" height="0.364748in" version="1.1" style="shape-rendering:geometricPrecision; text-rendering:geometricPrecision; image-rendering:optimizeQuality; fill-rule:evenodd; clip-rule:evenodd"
viewBox="0 0 38 33"
 xmlns:xlink="http://www.w3.org/1999/xlink">
 <defs>
  <style type="text/css">
   <![CDATA[
    .fil1 {fill:#BE7E1C}
    .fil0 {fill:#E4B855;fill-opacity:0.050980}
   ]]>
  </style>
 </defs>
 <g id="Layer_x0020_1">
  <metadata id="CorelCorpID_0Corel-Layer"/>
  <path class="fil0" d="M36 7l-33 0c-1,0 -2,1 -2,2l0 6c0,0 1,1 1,1l0 17 35 0 0 -17c0,0 1,-1 1,-1l0 -6c0,-1 -1,-2 -2,-2zm-14 11l-5 0 0 5 5 0 0 -5z"/>
  <path class="fil1" d="M15 1c-1,0 -2,1 -2,2l0 1c0,0 0,0 0,0 -1,0 -1,0 -1,0l0 -1c0,-2 1,-3 3,-3l8 0c2,0 3,1 3,3l0 1c0,0 -1,1 -1,1 0,0 -1,-1 -1,-1l0 -1c0,-1 0,-2 -1,-2l-8 0zm-15 7c0,-1 1,-2 3,-2l32 0c2,0 3,1 3,2l0 6c0,1 -1,2 -2,2l-14 3 0 3c0,1 0,1 -1,1l-5 0c0,0 -1,0 -1,-1l0 -3 -13 -3c-1,0 -2,-1 -2,-2l0 -6zm15 10l0 -1c0,0 1,-1 1,-1l5 0c1,0 1,1 1,1l0 1 13 -3c1,0 1,-1 1,-1l0 -6c0,0 0,-1 -1,-1l-32 0c-1,0 -2,1 -2,1l0 6c0,0 1,1 1,1l13 3zm2 0l0 4 4 0 0 -4 -4 0zm-15 0c0,0 0,1 0,1l0 11c0,1 1,2 2,2l30 0c1,0 1,-1 1,-2l0 -11c0,0 1,-1 1,-1 0,0 1,1 1,1l0 11c0,2 -1,3 -3,3l-30 0c-2,0 -3,-1 -3,-3l0 -11c0,0 0,-1 1,-1z"/>
 </g>
</svg>
