<?xml version="1.0" encoding="UTF-8"?>
<!DOCTYPE svg PUBLIC "-//W3C//DTD SVG 1.1//EN" "http://www.w3.org/Graphics/SVG/1.1/DTD/svg11.dtd">
<!-- Creator: CorelDRAW X7 -->
<svg xmlns="http://www.w3.org/2000/svg" xml:space="preserve" width="0.416669in" height="0.416669in" version="1.1" style="shape-rendering:geometricPrecision; text-rendering:geometricPrecision; image-rendering:optimizeQuality; fill-rule:evenodd; clip-rule:evenodd"
viewBox="0 0 29 29"
 xmlns:xlink="http://www.w3.org/1999/xlink">
 <defs>
  <style type="text/css">
   <![CDATA[
    .fil0 {fill:#BE7E1C}
    .fil1 {fill:#BE7E1C;fill-opacity:0.050980}
   ]]>
  </style>
 </defs>
 <g id="Layer_x0020_1">
  <metadata id="CorelCorpID_0Corel-Layer"/>
  <path class="fil0" d="M26 21c0,-1 -1,-1 -1,0l-4 4c-1,0 -1,1 -1,1 1,0 1,0 1,0l5 0c0,0 0,0 0,0l0 -5c0,0 0,0 0,0l0 0zm-4 4l3 -3 0 3 -3 0z"/>
  <path class="fil0" d="M29 14c0,0 -1,0 -1,0l-1 1 0 -9c0,0 0,0 0,0l-4 0 2 -1c0,0 0,0 0,0l1 -1c0,-1 0,-1 0,-1 0,-1 0,-1 0,-1l-2 -2c0,0 0,0 -1,0 0,0 0,0 0,0l-2 2 -1 1 -3 3 -13 0 0 -4c0,-1 0,-1 -1,-1 -1,0 -3,2 -3,4l0 18c0,0 0,0 0,0 0,1 0,1 1,2 1,1 1,1 2,1l13 0 -2 2c0,0 0,1 0,1 0,0 0,0 0,0l15 0c0,0 0,0 0,0l0 -15c0,0 0,0 0,0l0 0zm-6 -13c0,0 1,0 1,0l1 1c0,0 0,1 0,1l-1 1 -2 -2 1 -1 0 0zm-1 1l2 2 -1 1 -2 -2 1 -1 0 0zm6 17l-1 0c0,0 0,0 0,0 0,1 0,1 0,1l1 0 0 1 -1 0c0,0 0,0 0,0 0,1 0,1 0,1l1 0 0 1 -1 0c0,0 0,0 0,1 0,0 0,0 0,0l1 0 0 1 -1 0c0,0 0,0 0,1 0,0 0,0 0,0l1 0 0 2 -13 0 4 -4c1,0 1,-1 0,-1 0,0 0,0 0,0 0,0 0,0 0,0l-2 2 -14 0c-1,0 -2,-1 -2,-2 0,0 0,0 0,-1 0,0 0,0 0,0 0,0 0,0 0,0 0,0 0,0 0,0 0,0 0,0 0,0 0,0 0,0 0,0 0,0 0,0 0,0 0,0 0,0 0,0 0,0 0,0 0,0 0,0 0,0 0,0 0,0 0,0 0,0 0,0 0,0 0,0 0,0 0,0 0,0 0,0 0,0 0,0 0,0 0,0 0,0 0,-1 1,-2 2,-2 0,0 0,0 0,0 0,0 0,0 0,0 0,0 0,0 0,0 0,0 0,0 0,0 0,0 0,0 0,0 0,0 0,0 0,0 0,0 0,0 0,0 0,0 0,0 0,0 1,0 1,0 1,0l0 -3c0,-1 0,-1 -1,-1 0,0 0,0 0,1l0 2c-1,1 -1,1 -2,1 0,0 0,0 0,1l0 -16c0,-2 1,-3 2,-3l0 13c0,0 0,0 0,0 1,0 1,0 1,0l0 -8 12 0 -2 2c0,0 0,1 0,1 0,0 0,0 0,0l3 -3c0,0 0,0 0,0l3 -3 2 2 0 0c0,0 0,0 0,0l-9 9 -2 -2 2 -2c0,0 0,0 0,-1 0,0 0,0 0,0l-2 2c0,0 0,0 0,0 0,0 0,0 0,0 0,0 0,0 -1,0 0,0 0,0 0,0 0,0 0,0 0,0 0,0 0,1 0,1 0,0 0,0 0,0 0,0 0,0 0,0l0 2 -1 2c0,0 0,0 0,0l-1 0c-1,0 -1,0 -1,0 0,0 0,0 1,0l11 0c1,0 1,0 1,0 0,0 0,0 -1,0l-8 0 3 -1c0,0 0,0 0,0 0,0 0,0 0,0 0,0 0,0 0,0 0,0 0,0 0,0 0,0 0,0 0,0 0,0 0,0 0,0 0,0 0,0 0,0 0,0 0,0 0,0l8 -9 4 0 0 9 -6 6c0,0 0,0 0,1 0,0 0,0 0,0 0,0 0,0 0,0 0,0 1,0 1,0 0,0 0,0 0,0l0 0 7 -8 0 4zm-15 -4l-2 1 0 -1 0 -2 2 2z"/>
  <path class="fil1" d="M29 14c0,0 -1,0 -1,0l-1 1 0 -9c0,0 0,0 0,0l-4 0 2 -1 0 0 1 -1c0,-1 0,-1 0,-1 0,-1 0,-1 0,-1l-2 -2c0,0 0,0 -1,0 0,0 0,0 0,0l-2 2 -1 1 -3 3 -13 0 0 -4c0,-1 0,-1 -1,-1 -1,0 -3,2 -3,4l0 18c0,0 0,0 0,0 0,1 0,1 1,2 1,1 1,1 2,1l13 0 -2 2c0,0 0,1 0,1 0,0 0,0 0,0l15 0c0,0 0,0 0,0l0 -15c0,0 0,0 0,0zm-6 -13c0,0 1,0 1,0l1 1c0,0 0,1 0,1l-1 1 -2 -2 1 -1zm-1 1l2 2 -1 1 -2 -2 1 -1zm-9 13l-2 1 0 -1 0 -2 2 2zm12 6l-4 4c0,0 0,0 0,0l4 0 0 -4c0,0 0,0 0,0zm-14 -8l2 2 10 -9 -3 -3 -9 10z"/>
 </g>
</svg>
