<?xml version="1.0" encoding="UTF-8"?>
<!DOCTYPE svg PUBLIC "-//W3C//DTD SVG 1.1//EN" "http://www.w3.org/Graphics/SVG/1.1/DTD/svg11.dtd">
<!-- Creator: CorelDRAW X7 -->
<svg xmlns="http://www.w3.org/2000/svg" xml:space="preserve" width="0.416669in" height="0.314583in" version="1.1" style="shape-rendering:geometricPrecision; text-rendering:geometricPrecision; image-rendering:optimizeQuality; fill-rule:evenodd; clip-rule:evenodd"
viewBox="0 0 38 29"
 xmlns:xlink="http://www.w3.org/1999/xlink">
 <defs>
  <style type="text/css">
   <![CDATA[
    .str0 {stroke:#BE7E1C;stroke-width:0.239718}
    .fil1 {fill:#BE7E1C}
    .fil0 {fill:#E4B855;fill-opacity:0.050980}
   ]]>
  </style>
 </defs>
 <g id="Layer_x0020_1">
  <metadata id="CorelCorpID_0Corel-Layer"/>
  <path class="fil0" d="M0 6c0,-1 1,-2 2,-2l34 0c1,0 2,1 2,2l0 20c0,1 -1,2 -2,2l-14 0c4,-1 7,-5 7,-10 0,-5 -4,-10 -10,-10 -5,0 -10,5 -10,10 0,5 3,9 7,10l-14 0c-1,0 -2,-1 -2,-2l0 -20zm19 17c3,0 5,-2 5,-5 0,-2 -2,-5 -5,-5 -2,0 -5,3 -5,5 0,3 3,5 5,5z"/>
  <path class="fil1" d="M1 20c0,0 0,0 0,0 -1,0 -1,0 -1,0l0 -2c0,-1 0,-1 1,-1 0,0 0,0 0,1l0 2z"/>
  <path class="fil1" d="M36 4l-2 0 0 -1c0,0 -1,-1 -1,-1l-1 0 0 -1c0,0 0,-1 -1,-1l-3 0c-1,0 -1,1 -1,1l0 1 0 0c-1,0 -2,1 -2,1l0 1 -8 0 0 -1c0,-1 0,-1 -1,-1l-1 0c-1,0 -2,0 -2,1l0 1 -1 0 0 -2c0,0 0,-1 -1,-1l-6 0c-1,0 -1,1 -1,1l0 2 -2 0c-1,0 -2,1 -2,2l0 9c0,0 0,1 1,1 0,0 0,-1 0,-1l0 -5 3 0c0,1 1,1 2,1 1,0 2,0 2,-1l5 0c-3,2 -4,5 -4,8 0,3 0,5 1,6l-9 0 0 -2c0,0 0,0 0,0 -1,0 -1,0 -1,0l0 4c0,1 1,2 2,2l13 0c1,1 3,1 4,1 2,0 3,0 5,-1 0,0 0,0 0,0l12 0c1,0 2,-1 2,-2l0 -20c0,-1 -1,-2 -2,-2l0 0zm-8 -3c0,0 0,0 0,0l3 0c0,0 0,0 0,0l0 1 -3 0 0 -1 0 0zm-2 2c0,0 1,0 1,0l6 0c0,0 0,0 0,0l0 1 -7 0 0 -1 0 0zm-11 0c0,0 0,0 0,0l1 0c0,0 0,0 0,0l0 1 -1 0 0 -1zm-10 -1c0,0 0,0 0,0l6 0c0,0 0,0 0,0l0 2 -6 0 0 -2zm1 8c0,0 -1,0 -1,-1 0,0 1,-1 1,-1 1,0 1,1 1,1 0,1 0,1 -1,1l0 0zm2 -1c0,-1 -1,-2 -2,-2 -1,0 -2,1 -2,2l-3 0 0 -3c0,-1 1,-1 1,-1l34 0c1,0 1,0 1,1l0 3 -1 0 0 -2c0,-1 -1,-1 -1,-1l-5 0c-1,0 -1,0 -1,1l0 2 -5 0c-2,-1 -3,-1 -5,-1 -1,0 -3,0 -4,1l-7 0 0 0zm22 0l0 -2 4 0 0 2 -4 0 0 0zm-28 18c0,0 -1,-1 -1,-1l0 0 10 0c1,0 1,0 2,1l-11 0zm8 -9c0,-5 4,-9 9,-9 3,0 6,1 7,3 1,0 1,0 1,0 0,0 0,-1 0,-1 0,0 -1,-1 -1,-1l11 0 0 14 -9 0c1,-1 1,-2 2,-4l1 0c1,0 2,0 2,-1l0 -2c0,0 -1,-1 -2,-1l-1 0c-1,-1 -1,-2 -1,-3 0,0 -1,0 -1,0 0,0 0,1 0,1 0,1 1,3 1,4 0,6 -5,10 -10,10 -5,0 -9,-4 -9,-10l0 0zm20 -1l1 0c0,0 1,0 1,0l0 2c0,0 -1,0 -1,0l-1 0c0,0 0,0 0,-1 0,0 0,-1 0,-1l0 0zm6 10l-10 0c0,-1 1,-1 1,-1l10 0 0 0c0,0 0,1 -1,1l0 0z"/>
  <path class="fil1" d="M12 18c0,-4 3,-7 7,-7 4,0 8,3 8,7 0,4 -4,8 -8,8 -4,0 -7,-4 -7,-8l0 0zm1 0c0,4 3,7 6,7 4,0 7,-3 7,-7 0,-3 -3,-6 -7,-6 -3,0 -6,3 -6,6z"/>
  <path class="fil1 str0" d="M14 18c0,-3 2,-5 5,-5 3,0 5,2 5,5 0,3 -2,5 -5,5 -3,0 -5,-2 -5,-5zm1 0c0,3 2,5 4,5 3,0 4,-2 4,-5 0,-2 -1,-4 -4,-4 -2,0 -4,2 -4,4z"/>
 </g>
</svg>
