<?xml version="1.0" encoding="UTF-8"?>
<!DOCTYPE svg PUBLIC "-//W3C//DTD SVG 1.1//EN" "http://www.w3.org/Graphics/SVG/1.1/DTD/svg11.dtd">
<!-- Creator: CorelDRAW X7 -->
<svg xmlns="http://www.w3.org/2000/svg" xml:space="preserve" width="0.416669in" height="0.38889in" version="1.1" style="shape-rendering:geometricPrecision; text-rendering:geometricPrecision; image-rendering:optimizeQuality; fill-rule:evenodd; clip-rule:evenodd"
viewBox="0 0 29 27"
 xmlns:xlink="http://www.w3.org/1999/xlink">
 <defs>
  <style type="text/css">
   <![CDATA[
    .fil1 {fill:#BE7E1C}
    .fil0 {fill:#E4B855;fill-opacity:0.050980}
   ]]>
  </style>
 </defs>
 <g id="Layer_x0020_1">
  <metadata id="CorelCorpID_0Corel-Layer"/>
  <path class="fil0" d="M1 6l14 -6 13 6 -13 6 -14 -6zm14 1c0,0 1,0 1,-1 0,0 -1,0 -1,0 -1,0 -2,0 -2,0 0,1 1,1 2,1z"/>
  <path class="fil0" d="M5 16l0 -6 10 4 9 -4 0 6c-2,4 -7,5 -9,5 -3,0 -7,-1 -10,-5z"/>
  <path class="fil1" d="M20 24c0,0 0,0 0,1l-1 2c0,0 1,0 1,0 0,0 0,0 0,0 0,0 0,0 0,0l1 -2c0,0 0,-1 -1,-1z"/>
  <path class="fil1" d="M15 15c0,0 0,0 0,0l5 -3c0,0 0,0 0,0 0,-1 0,-1 0,-1l-5 3 -14 -6 0 0c0,-1 0,-1 -1,-1 0,0 0,0 0,1l0 0c0,0 0,1 0,1l14 6c0,0 0,0 1,0z"/>
  <path class="fil1" d="M20 20c0,-1 0,-1 0,-1 -1,1 -3,1 -5,1l0 -4c0,0 0,0 0,0 -1,0 -1,0 -1,0l0 4c-6,0 -8,-3 -8,-4l0 -3c0,-1 0,-1 -1,-1 0,0 0,0 0,1l0 3c0,0 0,0 0,0 0,0 2,5 10,5 2,0 4,0 5,-1 0,0 0,0 0,0z"/>
  <path class="fil1" d="M22 25c0,0 -1,0 -1,0l0 2c0,0 1,0 1,0 0,0 0,0 0,0l0 -2c0,0 0,0 0,0z"/>
  <path class="fil1" d="M29 7c-1,0 -1,0 -1,1l0 0 -6 2 0 -1 7 -2c0,0 0,0 0,-1 0,0 0,0 0,0l-14 -6c0,0 -1,0 -1,0l-14 6c0,0 0,0 0,0 0,1 0,1 0,1l14 6c0,0 0,0 1,0 0,0 0,0 0,0l5 -3c0,0 0,0 0,0 0,0 0,-1 -1,0l-4 2 -13 -6 13 -5 12 5 -5 3 -6 -2c0,0 0,-1 0,-1 0,-1 0,-1 -1,-1 -2,0 -2,0 -2,1 0,1 0,2 2,2 0,0 0,0 1,-1l5 2 0 2 0 0 0 10c0,1 -1,1 -1,2 0,1 1,1 2,1 1,0 1,0 1,-1 0,-1 0,-1 -1,-2l0 -2c2,-1 2,-3 2,-3 0,0 0,0 0,0l0 -3c0,-1 0,-1 0,-1 -1,0 -1,0 -1,1l0 3c0,0 0,1 -1,1l0 -6 7 -2c0,0 0,-1 0,-1l0 0c0,-1 0,-1 0,-1zm-14 0c-1,0 -1,0 -1,-1 0,0 0,0 1,0 0,0 1,0 1,0 0,1 -1,1 -1,1zm7 16c0,0 -1,0 -1,0 0,0 1,-1 1,-1 0,0 0,1 0,1 0,0 0,0 0,0z"/>
  <path class="fil1" d="M24 25c0,-1 -1,-1 -1,-1 0,0 0,1 0,1l0 2c0,0 1,0 1,0 0,0 0,0 0,0 0,0 0,0 0,0l0 -2z"/>
 </g>
</svg>
