<?xml version="1.0" encoding="UTF-8"?>
<!DOCTYPE svg PUBLIC "-//W3C//DTD SVG 1.1//EN" "http://www.w3.org/Graphics/SVG/1.1/DTD/svg11.dtd">
<!-- Creator: CorelDRAW X7 -->
<svg xmlns="http://www.w3.org/2000/svg" xml:space="preserve" width="0.220535in" height="0.416661in" version="1.1" style="shape-rendering:geometricPrecision; text-rendering:geometricPrecision; image-rendering:optimizeQuality; fill-rule:evenodd; clip-rule:evenodd"
viewBox="0 0 9 16"
 xmlns:xlink="http://www.w3.org/1999/xlink">
 <defs>
  <style type="text/css">
   <![CDATA[
    .fil1 {fill:#BE7E1C}
    .fil0 {fill:#E4B855;fill-opacity:0.050980}
   ]]>
  </style>
 </defs>
 <g id="Layer_x0020_1">
  <metadata id="CorelCorpID_0Corel-Layer"/>
  <path class="fil0" d="M1 0c0,0 -1,1 -1,1l0 14c0,0 1,1 1,1l6 0c1,0 1,-1 1,-1l0 -14c0,0 0,-1 -1,-1l-1 0 0 1 -4 0 0 -1 -1 0z"/>
  <path class="fil1" d="M3 14c0,0 0,1 0,1 0,0 0,0 0,0l0 -1zm2 1c0,0 1,0 1,0 0,0 -1,-1 -1,-1l0 1zm-5 -3c0,0 0,0 0,0 0,0 1,0 1,0l-1 0zm1 1c0,0 -1,0 -1,0 0,0 0,0 0,0l1 0zm7 -10c0,0 0,0 0,0 0,0 1,0 1,0l-1 0zm1 1c0,0 -1,0 -1,0 0,0 0,0 0,0l1 0zm-2 12l-6 0 0 0 6 0 0 0zm-6 -15l1 0 0 -1 -1 0 0 1zm1 0l1 0 0 -1 -1 0 0 1zm1 0l3 0 0 0 -3 0 0 0zm-1 0l4 0 0 -1 -4 0 0 1zm4 0l1 0 0 -1 -1 0 0 1zm0 0l0 -1 0 0 0 1 0 0zm-3 14l2 0 0 -1 -2 0 0 1zm-2 -3l0 -11 -1 0 0 11 1 0zm0 3l0 -2 -1 0 0 2 1 0zm7 -14l0 2 1 0 0 -2 -1 0zm0 3l0 11 1 0 0 -11 -1 0zm-2 -3c0,0 0,0 0,0l0 0c0,0 0,0 0,0l0 0zm-5 15c0,0 0,-1 0,-1l-1 0c0,1 1,1 1,1l0 0zm6 0c1,0 2,0 2,-1l-1 0c0,0 0,1 -1,1l0 0zm0 -15c1,0 1,0 1,0l1 0c0,0 -1,-1 -2,-1l0 1zm-5 0c0,0 0,0 1,0l0 0c0,0 0,0 0,0l-1 0zm-1 -1c0,0 -1,1 -1,1l1 0c0,0 0,0 0,0l0 -1z"/>
 </g>
</svg>
