<?xml version="1.0" encoding="UTF-8"?>
<!DOCTYPE svg PUBLIC "-//W3C//DTD SVG 1.1//EN" "http://www.w3.org/Graphics/SVG/1.1/DTD/svg11.dtd">
<!-- Creator: CorelDRAW X7 -->
<svg xmlns="http://www.w3.org/2000/svg" xml:space="preserve" width="0.367496in" height="0.364764in" version="1.1" style="shape-rendering:geometricPrecision; text-rendering:geometricPrecision; image-rendering:optimizeQuality; fill-rule:evenodd; clip-rule:evenodd"
viewBox="0 0 19 19"
 xmlns:xlink="http://www.w3.org/1999/xlink">
 <defs>
  <style type="text/css">
   <![CDATA[
    .fil0 {fill:#BE7E1C;fill-rule:nonzero}
   ]]>
  </style>
 </defs>
 <g id="Layer_x0020_1">
  <metadata id="CorelCorpID_0Corel-Layer"/>
  <path class="fil0" d="M10 14c1,0 2,0 3,1 1,1 2,3 2,4l0 0 -11 0 0 0c1,-1 1,-3 2,-4 1,-1 2,-1 4,-1zm3 2c-1,-1 -2,-1 -3,-1 -2,0 -3,0 -3,1 -1,1 -2,2 -2,3l9 0c0,-1 0,-2 -1,-3zm-3 -9c1,0 1,0 2,1 0,0 1,1 1,2 0,1 -1,1 -1,2 -1,0 -1,1 -2,1 -1,0 -2,-1 -2,-1 -1,-1 -1,-1 -1,-2 0,-1 0,-2 1,-2 0,-1 1,-1 2,-1zm1 1c0,0 -1,0 -1,0 -1,0 -1,0 -2,0 0,1 0,1 0,2 0,0 0,1 0,1 1,1 1,1 2,1 0,0 1,0 1,-1 1,0 1,-1 1,-1 0,-1 0,-1 -1,-2z"/>
  <path class="fil0" d="M10 4c1,0 3,0 3,1 1,1 2,2 2,4 0,0 0,0 0,1l-1 0c0,-1 0,-1 0,-1 0,-1 0,-2 -1,-3 -1,-1 -2,-2 -3,-2 -2,0 -3,1 -4,2 0,1 -1,2 -1,3 0,0 0,0 0,1l0 0c-1,-1 -1,-1 -1,-1 0,-2 1,-3 2,-4 1,-1 2,-1 4,-1z"/>
  <path class="fil0" d="M11 2c1,0 1,0 1,0 1,1 1,1 2,1l1 -1 2 2 -1 1c0,1 0,1 0,1 0,1 0,1 1,2l2 0 0 2 -1 0 0 -2 -2 0 0 0c0,-1 0,-1 0,-1 -1,-1 -1,-1 -1,-2l0 0 1 -1 -1 -2 -1 2 -1 0c0,-1 0,-1 -1,-1 0,0 -1,0 -1,0l0 0 0 -2 -2 0 0 2 0 0c-1,0 -1,0 -2,0 0,0 -1,0 -1,1l0 0 -2 -2 -1 2 2 1 0 0c-1,1 -1,1 -1,2 0,0 0,0 -1,1l0 0 -2 0 0 2 0 0 0 -3 2 0c0,0 0,0 0,-1 0,0 1,0 1,-1l-2 -1 2 -2 2 1c0,0 1,0 1,-1 0,0 1,0 1,0l0 -2 3 0 0 2z"/>
  <g id="_2125556018272">
   <path class="fil0" d="M4 15c1,0 2,0 2,1l0 0c-1,0 -1,0 -2,0 -1,0 -2,0 -2,1 -1,0 -1,1 -1,2l4 0 0 0 -5 0 0 0c0,-1 1,-2 1,-3 1,0 2,-1 3,-1zm0 -5c1,0 1,0 2,1 0,0 0,0 0,1 0,1 0,1 0,2 -1,0 -1,0 -2,0 -1,0 -1,0 -1,0 -1,-1 -1,-1 -1,-2 0,-1 0,-1 1,-1 0,-1 0,-1 1,-1zm1 1c0,0 -1,-1 -1,-1 0,0 -1,1 -1,1 0,0 -1,1 -1,1 0,1 1,1 1,1 0,1 1,1 1,1 0,0 1,0 1,-1 1,0 1,0 1,-1 0,0 0,-1 -1,-1z"/>
   <path class="fil0" d="M15 15c1,0 2,1 3,1 1,1 1,2 1,3l0 0 -4 0 0 0 4 0c0,-1 -1,-2 -1,-2 -1,-1 -2,-1 -3,-1 0,0 -1,0 -1,0l-1 0c1,-1 2,-1 2,-1zm0 -5c1,0 2,0 2,1 0,0 1,0 1,1 0,1 -1,1 -1,2 0,0 -1,0 -2,0 0,0 -1,0 -1,0 -1,-1 -1,-1 -1,-2 0,-1 0,-1 1,-1 0,-1 1,-1 1,-1zm2 1c-1,0 -1,-1 -2,-1 0,0 0,1 -1,1 0,0 0,1 0,1 0,1 0,1 0,1 1,1 1,1 1,1 1,0 1,0 2,-1 0,0 0,0 0,-1 0,0 0,-1 0,-1z"/>
  </g>
 </g>
</svg>
